Coordinates
version=1
nRows=4
nColumns=114
inDegrees=yes

Units are S.I. units (second, meters, Newtons, ...)
If the header above contains a line with 'inDegrees', this indicates whether rotational values are in degrees (yes) or radians (no).

endheader 
time	pelvis_tilt	pelvis_list	pelvis_rotation	pelvis_tx	pelvis_ty	pelvis_tz	hip_flexion_l	hip_adduction_l	hip_rotation_l	hip_flexion_r	hip_adduction_r	hip_rotation_r	knee_angle_l	knee_angle_r	ankle_angle_l	ankle_angle_r	subtalar_angle_l	subtalar_angle_r	mtp_angle_l	mtp_angle_r	lumbar_extension	lumbar_bending	lumbar_rotation	arm_flex_l	arm_add_l	arm_rot_l	arm_flex_r	arm_add_r	arm_rot_r	elbow_flex_l	elbow_flex_r	pro_sup_l	pro_sup_r	addbrev_l/activation	addlong_l/activation	addmagDist_l/activation	addmagIsch_l/activation	addmagMid_l/activation	addmagProx_l/activation	bflh_l/activation	bfsh_l/activation	edl_l/activation	ehl_l/activation	fdl_l/activation	fhl_l/activation	gaslat_l/activation	gasmed_l/activation	glmax1_l/activation	glmax2_l/activation	glmax3_l/activation	glmed1_l/activation	glmed2_l/activation	glmed3_l/activation	glmin1_l/activation	glmin2_l/activation	glmin3_l/activation	grac_l/activation	iliacus_l/activation	perbrev_l/activation	perlong_l/activation	piri_l/activation	psoas_l/activation	recfem_l/activation	sart_l/activation	semimem_l/activation	semiten_l/activation	soleus_l/activation	tfl_l/activation	tibant_l/activation	tibpost_l/activation	vasint_l/activation	vaslat_l/activation	vasmed_l/activation	addbrev_r/activation	addlong_r/activation	addmagDist_r/activation	addmagIsch_r/activation	addmagMid_r/activation	addmagProx_r/activation	bflh_r/activation	bfsh_r/activation	edl_r/activation	ehl_r/activation	fdl_r/activation	fhl_r/activation	gaslat_r/activation	gasmed_r/activation	glmax1_r/activation	glmax2_r/activation	glmax3_r/activation	glmed1_r/activation	glmed2_r/activation	glmed3_r/activation	glmin1_r/activation	glmin2_r/activation	glmin3_r/activation	grac_r/activation	iliacus_r/activation	perbrev_r/activation	perlong_r/activation	piri_r/activation	psoas_r/activation	recfem_r/activation	sart_r/activation	semimem_r/activation	semiten_r/activation	soleus_r/activation	tfl_r/activation	tibant_r/activation	tibpost_r/activation	vasint_r/activation	vaslat_r/activation	vasmed_r/activation	
         10.60000000	          6.46174075	         -2.85894620	        -55.62959355	         -4.14649323	          1.40184224	          0.02404954	         25.65572609	        -12.29743572	         -0.09483634	         17.93516017	        -17.64152645	         22.97337804	         42.28784492	         68.14742470	         -9.09781516	        -32.80665803	        -18.65901989	        -34.81782224	          0.34761774	          0.82889773	        -10.87682406	          1.48163186	          4.24181538	        163.10258498	         -9.71075456	        338.87513501	       -372.93873406	         17.25920244	        -31.47570419	         43.86199396	        108.91927946	        117.77249859	        119.72840033	          0.04310569	          0.04701263	          0.01737644	          0.01110144	          0.05655719	          0.12940687	          0.19266664	          0.13279814	          0.39696355	          0.09646489	          0.01012846	          0.01005048	          0.01663898	          0.01918822	          0.01013715	          0.01008110	          0.08604438	          0.01004328	          0.01007631	          0.01010087	          0.01015950	          0.01021097	          0.01028621	          0.06588401	          0.44273210	          0.10970280	          0.07324918	          0.35890830	          0.50164255	          0.13008873	          0.32480754	          0.16842084	          0.09561611	          0.01000435	          0.21912786	          0.50422159	          0.01003036	          0.01005262	          0.01001806	          0.01003826	          0.58363644	          0.83385275	          0.24924208	          0.02060130	          0.64207846	          0.57898948	          0.27424461	          0.15834501	          0.98848236	          0.22299765	          0.01665659	          0.01420272	          0.03265519	          0.07462309	          0.01448486	          0.15149925	          0.35105163	          0.01001916	          0.01002822	          0.01003435	          0.01007617	          0.12189818	          0.13328193	          0.33374446	          0.37589576	          0.16552667	          0.24437963	          0.29083426	          0.74559140	          0.90568221	          0.20119881	          0.09371540	          0.23887035	          0.04158731	          0.12922663	          0.90704781	          0.01494933	          0.01437083	          0.01438875	          0.01437706	
         10.61000000	          6.41434761	         -2.86524215	        -54.25344839	         -4.09918119	          1.39762345	          0.01849967	         24.62275702	         -9.67798430	          2.04247320	         20.35126141	        -17.16688151	         20.06447592	         42.38989538	         72.47835947	         -5.53485573	        -28.41614250	        -18.03080268	        -34.91588728	          0.35084763	          0.86166700	         -9.65203575	          1.90977951	          0.97050493	        160.86389877	         -0.39057073	        372.59313976	       -370.80317519	         16.32624199	        -13.95389870	         33.04038203	        105.78473088	        123.27165794	        119.96610295	          0.03594892	          0.03920893	          0.01448991	          0.01004890	          0.04713885	          0.10785962	          0.16056233	          0.11072265	          0.33097985	          0.12431745	          0.01004315	          0.01002329	          0.01386731	          0.01599091	          0.01030916	          0.01006619	          0.07170591	          0.01199765	          0.01206754	          0.01311894	          0.01212688	          0.05142199	          0.15905178	          0.05494258	          0.52863176	          0.09146193	          0.06104962	          0.41505983	          0.70258931	          0.16405817	          0.75166340	          0.14035341	          0.07969157	          0.01000243	          0.25413030	          0.66189359	          0.01001077	          0.01005853	          0.01002011	          0.01004303	          0.48637355	          0.69488462	          0.20770815	          0.01721075	          0.53507515	          0.48251381	          0.22854027	          0.13197566	          0.97487147	          0.54497566	          0.01388437	          0.01183672	          0.02721340	          0.06218649	          0.01207550	          0.12625126	          0.29254715	          0.01000922	          0.01001241	          0.01001287	          0.01003898	          0.10158755	          0.11107566	          0.27813751	          0.34555123	          0.37956421	          0.20366197	          0.24237663	          0.74323392	          0.86487567	          0.16770084	          0.07809719	          0.19906256	          0.03465613	          0.10772272	          0.96901283	          0.01245827	          0.01200383	          0.01200106	          0.01200184	
         10.62000000	          6.28022066	         -2.90791924	        -53.02355769	         -4.05341266	          1.39240805	          0.01255467	         23.85018312	         -7.52016835	          3.68495922	         23.19079476	        -16.53947829	         17.18338966	         42.89156273	         76.65186374	         -1.60441702	        -23.45301494	        -16.81944970	        -34.97646265	          0.33434844	          0.89032751	         -8.86897304	          2.60241886	         -3.53278568	        169.33620425	          5.92890257	        447.58683746	       -366.03634862	         15.74084836	          8.88751750	          0.18100741	        100.93090561	        121.08440992	        120.32951715	          0.03013225	          0.19857760	          0.01209688	          0.01006930	          0.03929295	          0.08994060	          0.13386385	          0.56480673	          0.27587788	          0.10390862	          0.01102230	          0.01004989	          0.01155877	          0.01332698	          0.01005541	          0.01002991	          0.05975764	          0.01003104	          0.01008510	          0.01095470	          0.01017173	          0.04288321	          0.13257111	          0.23650116	          0.44056167	          0.07622597	          0.05087777	          0.34615152	          0.64015848	          0.13671578	          0.63962399	          0.18901189	          0.16420110	          0.01000160	          0.21180284	          0.55165281	          0.01013909	          0.01001579	          0.01000542	          0.01001174	          0.40531519	          0.57907309	          0.17309279	          0.01434964	          0.44589909	          0.40210132	          0.19806660	          0.11000614	          0.81240161	          0.45416186	          0.03028176	          0.01000321	          0.02267852	          0.05182262	          0.01007720	          0.10521184	          0.24379147	          0.01002720	          0.01003557	          0.01003408	          0.01014338	          0.08466480	          0.09257473	          0.23178850	          0.28810086	          0.31631824	          0.16972572	          0.20200223	          0.61937840	          0.79175045	          0.28801071	          0.06508215	          0.16588808	          0.02888015	          0.08978961	          0.84347466	          0.01038778	          0.01002088	          0.01000757	          0.01001470	
         10.63000000	          5.94804508	         -3.02916675	        -52.16503503	         -4.00859435	          1.38763658	          0.00548304	         23.32607726	         -5.82465241	          4.79190813	         26.43930412	        -15.65420213	         14.45486941	         43.70527351	         80.24520898	          2.21621046	        -18.21201583	        -15.27330860	        -34.82234394	          0.32523457	          0.85497648	         -7.98166299	          3.98155130	         -7.49177399	        158.09702925	         10.52822845	        552.76980855	       -358.51339176	         15.85506633	         35.96937086	        -41.97216925	         95.40000315	        119.20109458	        120.73233156	          0.02515506	          0.16550536	          0.01017833	          0.01010243	          0.03275427	          0.07498184	          0.11155734	          0.47073230	          0.22995980	          0.08833695	          0.02100905	          0.01054732	          0.01275672	          0.01203736	          0.01039818	          0.01014569	          0.04980084	          0.01006639	          0.01014644	          0.01032813	          0.01020463	          0.03583622	          0.11057917	          0.19715849	          0.36716214	          0.06353407	          0.04240342	          0.31891421	          0.53350775	          0.22081226	          0.73102007	          0.15751235	          0.48871507	          0.01000286	          0.22652046	          0.45973840	          0.02060020	          0.01000350	          0.01000120	          0.01000263	          0.33776596	          0.48256393	          0.14424677	          0.01201264	          0.37158556	          0.33509034	          0.16505601	          0.09168608	          0.67700763	          0.37847628	          0.02530128	          0.01001634	          0.01889986	          0.04318632	          0.01024056	          0.08768037	          0.20316225	          0.01002342	          0.01004022	          0.01005740	          0.01008048	          0.07056267	          0.07715601	          0.19316272	          0.24009944	          0.26361318	          0.14148841	          0.16836982	          0.51616100	          0.93056018	          0.24004274	          0.05423596	          0.13824266	          0.02406688	          0.07487077	          0.70289869	          0.04506268	          0.01001943	          0.01000762	          0.01001332	
